<svg data-name="Layer 1" xmlns="http://www.w3.org/2000/svg" viewBox="0 0 571.4 114.9">
    <path class="cls-1" d="M72.5 57.8 32.5 0H0v111.2h32.8V55.1l40 56.1h32.5V0H72.5v57.8Zm214.2 8.1-11.6-37.6h-25.8l-11.8 37.6-10.4-37.6h-35.2l27.5 82.9h30.1l12.3-39.4 12.5 39.4h30l27.4-82.9h-34.4l-10.6 37.6ZM335.3 0H370v111.1h-34.7V0ZM435 39.5c-4.2-8.3-13.3-13.5-22.5-13.5-21.4 0-37.7 18.9-37.7 43.8s16.3 43.8 37.7 43.8c9.2 0 18.9-5.7 22.5-13.5v11.1h34.4V28.3H435v11.2Zm-12.5 43c-6.9 0-13.2-5.4-13.2-12.8s6.2-12.8 13.2-12.8 13.2 5.4 13.2 12.8-6.3 12.8-13.2 12.8ZM533.7 26c-9.2 0-17.8 5.1-22.5 13.5V0h-34.5v111.2h34.5V100c4.7 8.6 13.3 13.5 22.5 13.5 21.4 0 37.7-19.1 37.7-43.8C571.3 45 555.1 26 533.7 26Zm-10.1 56.5c-6.9 0-13.2-5.4-13.2-12.8s6.2-12.8 13.2-12.8 13.2 5.4 13.2 12.8-6.2 12.8-13.2 12.8Zm-369-58Zm0 0c-24.5 0-44.2 19.3-44.2 45.2s19 45.2 45.2 45.2c21 0 35.8-14.9 39.6-29.5.1-.5.3-1.1.4-1.6h-30c-2.1 3.5-6.3 4.9-10.2 4.9-8.2 0-12.7-5.6-13-11.1h54.4c1.7-7 0-53.1-42.2-53.1Zm-11.7 35.6c.5-4.9 4.9-9.7 11.3-9.7 7.4 0 11.4 4.7 11.8 9.7h-23.1Z"/>
</svg>
