<svg width="580" height="70" viewBox="0 0 580 70" fill="none" xmlns="http://www.w3.org/2000/svg">
<path d="M122.63 0.774515C122.451 1.25137 122.392 3.87407 122.511 6.61598L122.69 11.623L133.002 11.8018L143.254 11.921V40.5323V69.1436H149.811H156.368V40.5323V11.921L166.68 11.8018L176.932 11.623L177.111 5.78149L177.29 -0.000374198H150.109C127.995 -0.000374198 122.869 0.118839 122.63 0.774515Z" fill="#1F3634"/>
<path d="M554.363 5.18618C554.124 5.365 553.945 8.70298 553.945 12.5774V19.611L549.952 19.7899L545.899 19.9687L545.72 24.8564L545.541 29.8038H549.713H553.826L554.065 43.6326C554.243 56.6865 554.363 57.6998 555.674 60.6801C558.535 67.0581 564.198 69.9788 572.96 69.6212C575.94 69.5616 578.623 69.1443 578.98 68.7867C579.398 68.3694 579.457 66.5216 579.219 63.422L578.802 58.6535L574.271 58.7131C566.88 58.7131 566.463 57.819 566.463 41.7252V29.8038H572.722H578.98V24.7372V19.6706H572.722H566.463V12.2198V4.76893H560.621C557.403 4.76893 554.542 4.94775 554.363 5.18618Z" fill="#1F3634"/>
<path d="M190.045 19.4914C182.356 21.1008 176.097 27.0614 173.236 35.3468C171.925 39.1616 171.746 40.3538 171.984 45.7184C172.223 51.2618 172.461 52.2155 174.428 56.2688C177.11 61.693 181.641 66.0443 186.648 68.0709C189.509 69.2035 191.118 69.4419 197.198 69.4419C205.781 69.4419 209.417 68.2498 214.126 64.0177C216.689 61.693 219.551 57.3417 219.551 55.6727C219.551 55.1363 214.484 53.5269 210.192 52.752C208.523 52.3943 208.166 52.5732 207.689 53.7653C206.914 55.6727 204.112 58.1166 201.728 58.9511C196.96 60.5009 190.522 59.1895 187.542 55.9708C186.528 54.7786 183.786 49.0564 183.786 47.9834C183.786 47.8046 192.072 47.6854 202.205 47.6854H220.564L220.921 45.5992C221.339 43.0957 220.564 37.9099 219.253 34.0354C216.153 24.856 207.152 19.0145 196.304 19.1337C193.502 19.1933 190.701 19.3125 190.045 19.4914ZM202.384 29.863C204.768 31.0551 207.629 35.2276 207.629 37.433C207.629 38.7444 207.51 38.7444 196.006 38.7444C188.555 38.7444 184.383 38.5059 184.383 38.1483C184.383 37.7907 184.979 36.3005 185.634 34.8103C187.005 32.0088 190.641 28.9689 193.324 28.4324C195.708 28.0151 199.999 28.6708 202.384 29.863Z" fill="#1F3634"/>
<path d="M251.142 19.6103C247.506 20.7428 244.168 23.3059 241.307 27.1207C240.532 28.1937 240.473 27.9552 240.413 23.9616V19.6103L234.333 19.7891L228.194 19.9679L228.015 44.5259L227.896 69.1436H234.095H240.294L240.473 55.8512L240.711 42.6185L242.797 38.446C244.049 35.9426 245.778 33.6179 247.149 32.4854C249.354 30.8164 249.771 30.6972 254.719 30.6972H259.964L260.322 27.1803C260.918 21.5177 260.799 19.8487 259.726 19.4315C258.474 18.9546 252.99 19.0738 251.142 19.6103Z" fill="#1F3634"/>
<path d="M291.377 19.6103C288.695 20.266 284.939 22.829 282.555 25.7498L280.35 28.3129V23.9616V19.6699H274.389H268.428V44.4067V69.1436H274.389H280.35V59.1296C280.35 53.6458 280.648 47.2678 280.946 45.0028C281.661 39.817 284.105 34.9888 287.085 32.545C289.291 30.8164 289.708 30.6972 294.536 30.6972C297.397 30.6972 299.901 30.3991 300.139 30.1011C300.378 29.7434 300.616 27.2996 300.616 24.6769C300.616 20.7428 300.437 19.7295 299.662 19.4315C298.47 18.9546 293.642 19.0738 291.377 19.6103Z" fill="#1F3634"/>
<path d="M318.2 19.6104C315.16 20.3853 310.511 23.0676 308.544 25.1538C306.398 27.4189 304.312 31.2337 304.073 33.32C303.894 34.7505 304.192 34.8698 308.961 35.8235C311.763 36.4195 314.087 36.658 314.206 36.4195C316.173 30.8165 319.333 28.313 324.459 28.3726C329.823 28.3726 333.996 31.651 334.234 35.9427L334.294 37.8501L329.525 38.3269C310.392 40.2344 303 44.9433 303 55.1361C303 63.7195 309.617 69.6801 319.094 69.7397C322.79 69.7397 324.161 69.4417 327.26 68.0111C329.287 67.0574 331.492 65.4481 332.267 64.4347C332.983 63.4214 333.817 62.5869 334.115 62.5869C334.353 62.5869 334.592 64.0771 334.592 65.8653V69.1437H340.314H345.977L345.798 50.4867C345.619 32.6643 345.56 31.7702 344.308 29.4455C342.4 25.9287 338.943 22.6504 335.188 20.9814C332.565 19.7296 330.837 19.4316 325.949 19.3124C322.671 19.1932 319.213 19.3124 318.2 19.6104ZM334.413 49.1754C333.996 51.8577 332.148 56.209 330.717 57.58C327.618 60.7391 321.538 61.812 317.902 59.9046C314.564 58.176 313.908 54.3612 316.471 51.3212C318.558 48.8177 323.088 47.566 333.936 46.5527C334.592 46.4931 334.652 47.0892 334.413 49.1754Z" fill="#1F3634"/>
<path d="M376.317 19.6103C373.217 20.6236 371.012 22.1138 368.926 24.5576L366.78 27.0611V23.3655V19.6699H360.521H354.262V44.4067V69.1436H360.461H366.72L366.899 53.765C367.078 39.6382 367.197 38.2672 368.33 35.7041C369.045 34.214 370.595 32.1873 371.846 31.2336C374.767 29.0282 380.012 28.7897 382.695 30.7568C386.271 33.3795 386.45 34.3928 386.45 52.5729V69.1436H392.709H398.908L399.087 53.5266C399.265 38.148 399.325 37.7904 400.756 34.8696C404.392 27.5976 414.823 27.4188 417.684 34.5716C418.459 36.5982 418.638 39.6382 418.638 53.0497V69.1436H424.956H431.274L431.036 50.4866C430.857 32.545 430.797 31.7701 429.486 28.8493C427.877 25.2729 425.373 22.7098 421.618 20.7428C419.353 19.6103 418.101 19.3719 413.273 19.3719C406.299 19.4315 403.319 20.6236 399.385 25.0345L396.643 28.0744L395.749 26.4055C394.676 24.2596 392.053 21.8753 389.49 20.564C387.165 19.4315 378.761 18.7758 376.317 19.6103Z" fill="#1F3634"/>
<path d="M454.7 19.6111C448.798 21.1609 442.897 25.9891 440.096 31.5921C437.712 36.4203 436.877 40.5331 437.294 46.1362C437.712 52.3353 438.367 54.4811 441.228 58.8921C446.295 66.6409 453.507 70.0981 463.819 69.6213C470.972 69.2636 475.264 67.7139 479.436 63.9586C482.298 61.3955 484.801 57.6403 484.801 55.9117C484.801 55.4349 483.192 54.66 481.105 54.0639C475.443 52.5141 473.476 52.2161 473.476 52.9314C473.476 54.1831 469.72 57.8787 467.634 58.7132C463.76 60.3822 457.918 59.6669 454.282 57.1038C452.375 55.7925 449.633 51.0836 449.633 49.1165V47.686H467.813H485.993L486.351 46.0766C486.947 43.7519 485.576 36.003 483.967 32.367C481.88 27.8369 477.648 23.6048 472.939 21.3994C469.422 19.6708 468.35 19.4919 462.746 19.3131C459.289 19.1939 455.713 19.3131 454.7 19.6111ZM467.336 29.5655C469.84 30.698 472.224 33.8572 472.701 36.5991L473.058 38.7449H461.316C453.686 38.7449 449.633 38.5065 449.633 38.1489C449.633 37.7912 450.289 36.1818 451.123 34.6321C452.554 31.7113 455.117 29.6251 458.455 28.6118C460.481 27.9561 464.833 28.433 467.336 29.5655Z" fill="#1F3634"/>
<path d="M516.095 19.6103C513.651 20.2063 511.267 21.7561 508.227 24.6769L505.664 27.0611V23.3655V19.6699H499.703H493.742V44.4067V69.1436H499.643H505.544L505.783 54.9571C505.962 41.0091 505.962 40.7707 507.571 37.3731C509.359 33.6179 510.849 32.0085 513.83 30.6375C517.406 29.0282 522.473 29.9819 524.976 32.7238C527.361 35.3465 527.659 37.7904 527.718 53.765V69.1436H533.738H539.699L539.52 50.1886C539.342 29.0878 539.222 28.6705 534.99 24.2596C531.533 20.6236 528.791 19.5507 522.95 19.3122C520.148 19.193 517.049 19.3122 516.095 19.6103Z" fill="#1F3634"/>
<path d="M44.6138 0.585766C43.5637 1.80856 0.26709 67.4724 0.26709 67.8392C0.26709 68.043 0.630588 68.6137 1.07486 69.1028C1.92302 69.9995 2.04419 69.9995 15.1705 69.9995H28.4584L28.943 67.88C30.6797 60.5025 36.0514 53.8179 42.9579 50.4349C48.37 47.7447 53.8224 47.011 59.7192 48.1523C69.3317 50.0273 77.369 57.6493 80.0751 67.4317L80.7617 69.9995H94.1707C105.439 69.9995 107.701 69.918 108.105 69.3881C108.347 69.062 108.509 68.5729 108.428 68.2876C108.226 67.4317 78.6211 22.7183 78.298 22.7183C78.096 22.7183 76.117 25.4492 73.8552 28.8322C71.5531 32.1745 69.5336 34.9462 69.3721 34.9462C69.1701 34.9462 68.0796 33.4381 66.868 31.5631C64.8485 28.4246 57.9017 17.9086 49.7432 5.63997C47.7641 2.62375 45.9063 0.0966496 45.6639 0.0151302C45.4216 -0.0663892 44.9369 0.178169 44.6138 0.585766Z" fill="#1F3634"/>
</svg>
