<?xml version="1.0" encoding="UTF-8"?>
<svg width="298px" height="46px" viewBox="0 0 298 46" version="1.1" xmlns="http://www.w3.org/2000/svg" xmlns:xlink="http://www.w3.org/1999/xlink">
    <!-- Generator: Sketch 59.1 (86144) - https://sketch.com -->
    <title>Terrament</title>
    <desc>Created with Sketch.</desc>
    <g id="Page-1" stroke="none" stroke-width="1" fill="none" fill-rule="evenodd">
        <g id="Logo" transform="translate(-103.000000, -122.000000)" fill="#FFFFFF" fill-rule="nonzero">
            <path d="M117.348612,167 L126.052612,167 L126.052612,129.688 L139.556612,129.688 L139.556612,122.2 L103.844612,122.2 L103.844612,129.688 L117.348612,129.688 L117.348612,167 Z M167.908612,149.784 C167.908612,142.296 162.596612,134.232 151.716612,134.232 C141.028612,134.232 135.780612,142.488 135.780612,150.872 C135.780612,159.256 141.476612,167.512 152.164612,167.512 C159.716612,167.512 165.348612,163.928 167.140612,157.848 L159.588612,155.8 C158.756612,158.936 156.068612,160.728 152.292612,160.728 C147.684612,160.728 144.548612,157.848 143.844612,152.984 L167.780612,152.984 L167.821125,152.476851 C167.869102,151.752327 167.908612,150.689143 167.908612,149.784 Z M144.036612,147.096 C144.932612,142.744 147.748612,140.376 151.716612,140.376 C156.388612,140.376 158.884612,143.256 159.268612,147.096 L144.036612,147.096 Z M193.248612,142.552 L193.760612,134.744 C192.800612,134.424 191.392612,134.232 190.240612,134.232 C186.336612,134.232 182.112612,136.984 180.512612,140.632 L180.512612,134.744 L172.448612,134.744 L172.448612,167 L180.512612,167 L180.512612,155.16 C180.512612,145.56 184.608612,141.784 189.152612,141.784 C190.560612,141.784 192.096612,142.04 193.248612,142.552 Z M218.720612,142.552 L219.232612,134.744 C218.272612,134.424 216.864612,134.232 215.712612,134.232 C211.808612,134.232 207.584612,136.984 205.984612,140.632 L205.984612,134.744 L197.920612,134.744 L197.920612,167 L205.984612,167 L205.984612,155.16 C205.984612,145.56 210.080612,141.784 214.624612,141.784 C216.032612,141.784 217.568612,142.04 218.720612,142.552 Z M234.912612,134.232 C228.064612,134.232 222.368612,138.328 221.344612,144.728 L228.512612,146.008 C228.896612,142.552 231.392612,140.376 234.912612,140.376 C238.816612,140.376 241.312612,142.616 241.312612,146.264 L241.312612,146.584 L235.296612,147.16 C225.696612,148.184 220.896612,151.576 220.896612,157.912 C220.896612,163.416 225.312612,167.512 231.648612,167.512 C235.616612,167.512 239.520612,165.464 241.312612,162.328 L241.312612,167 L249.120612,167 L249.120612,147.352 C249.120612,138.776 243.360612,134.232 234.912612,134.232 Z M233.440612,161.56 C230.496612,161.56 228.704612,159.896 228.704612,157.656 C228.704612,155.352 230.880612,153.56 235.168612,153.048 L241.312612,152.344 L241.312612,153.048 C241.312612,157.784 238.432612,161.56 233.440612,161.56 Z M254.432612,167 L262.496612,167 L262.496612,150.616 C262.496612,144.92 264.992612,141.08 269.408612,141.08 C273.120612,141.08 275.168612,143.512 275.168612,147.352 L275.168612,167 L283.232612,167 L283.232612,150.552 C283.232612,144.856 285.728612,141.08 290.080612,141.08 C293.856612,141.08 295.968612,143.512 295.968612,147.352 L295.968612,167 L304.032612,167 L304.032612,145.112 C304.032612,138.776 299.488612,134.232 292.512612,134.232 C287.392612,134.232 283.552612,137.048 281.824612,140.312 C280.352612,136.408 276.896612,134.232 271.776612,134.232 C267.296612,134.232 264.288612,136.472 262.496612,139.672 L262.496612,134.744 L254.432612,134.744 L254.432612,167 Z M340.059388,149.784 C340.059388,142.296 334.747388,134.232 323.867388,134.232 C313.179388,134.232 307.931388,142.488 307.931388,150.872 C307.931388,159.256 313.627388,167.512 324.315388,167.512 C331.867388,167.512 337.499388,163.928 339.291388,157.848 L331.739388,155.8 C330.907388,158.936 328.219388,160.728 324.443388,160.728 C319.835388,160.728 316.699388,157.848 315.995388,152.984 L339.931388,152.984 L339.95863,152.665679 C340.012367,151.946939 340.059388,150.771429 340.059388,149.784 Z M316.187388,147.096 C317.083388,142.744 319.899388,140.376 323.867388,140.376 C328.539388,140.376 331.035388,143.256 331.419388,147.096 L316.187388,147.096 Z M344.603388,167 L352.667388,167 L352.667388,152.856 C352.667388,145.624 355.547388,141.4 360.475388,141.4 C364.251388,141.4 366.619388,144.024 366.619388,147.8 L366.619388,167 L374.683388,167 L374.683388,145.88 C374.683388,138.84 369.947388,134.232 362.907388,134.232 C358.363388,134.232 354.715388,136.472 352.667388,139.608 L352.667388,134.744 L344.603388,134.744 L344.603388,167 Z M400.027388,166.68 C398.427388,167.256 396.699388,167.512 394.843388,167.512 C388.315388,167.512 383.451388,163.992 383.451388,156.44 L383.451388,141.528 L378.011388,141.528 L378.011388,134.744 L383.451388,134.744 L383.451388,125.272 L391.515388,125.272 L391.515388,134.744 L399.643388,134.744 L399.643388,141.528 L391.515388,141.528 L391.515388,155.672 C391.515388,158.744 393.179388,160.408 395.675388,160.408 C396.891388,160.408 398.299388,160.216 399.451388,159.64 L400.027388,166.68 Z" id="Terrament"></path>
        </g>
    </g>
</svg>