<svg width="580" height="70" viewBox="0 0 580 70" fill="none" xmlns="http://www.w3.org/2000/svg">
<path d="M122.363 0.775003C122.184 1.25186 122.125 3.87456 122.244 6.61647L122.423 11.6234L132.735 11.8023L142.987 11.9215V40.5328V69.144H149.544H156.1V40.5328V11.9215L166.412 11.8023L176.665 11.6234L176.844 5.78198L177.022 0.000114083H149.842C127.728 0.000114083 122.601 0.119328 122.363 0.775003Z" fill="white"/>
<path d="M554.096 5.18667C553.857 5.36549 553.678 8.70347 553.678 12.5779V19.6115L549.685 19.7903L545.631 19.9692L545.453 24.8569L545.274 29.8043H549.446H553.559L553.798 43.6331C553.976 56.687 554.096 57.7003 555.407 60.6806C558.268 67.0586 563.931 69.9793 572.693 69.6216C575.673 69.562 578.356 69.1448 578.713 68.7872C579.13 68.3699 579.19 66.5221 578.952 63.4225L578.534 58.654L574.004 58.7136C566.613 58.7136 566.196 57.8195 566.196 41.7257V29.8043H572.455H578.713V24.7377V19.6711H572.455H566.196V12.2203V4.76942H560.354C557.136 4.76942 554.274 4.94824 554.096 5.18667Z" fill="white"/>
<path d="M189.778 19.4919C182.089 21.1012 175.83 27.0619 172.969 35.3473C171.658 39.1621 171.479 40.3542 171.718 45.7189C171.956 51.2623 172.194 52.216 174.162 56.2693C176.844 61.6935 181.374 66.0448 186.381 68.0714C189.242 69.204 190.851 69.4424 196.931 69.4424C205.515 69.4424 209.151 68.2502 213.86 64.0182C216.423 61.6935 219.284 57.3422 219.284 55.6732C219.284 55.1367 214.217 53.5274 209.926 52.7525C208.257 52.3948 207.899 52.5736 207.422 53.7658C206.647 55.6732 203.846 58.1171 201.461 58.9516C196.693 60.5014 190.255 59.19 187.275 55.9712C186.262 54.7791 183.52 49.0568 183.52 47.9839C183.52 47.8051 191.805 47.6859 201.938 47.6859H220.297L220.655 45.5997C221.072 43.0962 220.297 37.9104 218.986 34.0359C215.886 24.8565 206.886 19.015 196.037 19.1342C193.236 19.1938 190.434 19.313 189.778 19.4919ZM202.117 29.8634C204.501 31.0556 207.363 35.2281 207.363 37.4335C207.363 38.7449 207.243 38.7449 195.739 38.7449C188.288 38.7449 184.116 38.5064 184.116 38.1488C184.116 37.7912 184.712 36.301 185.368 34.8108C186.739 32.0093 190.375 28.9693 193.057 28.4329C195.441 28.0156 199.733 28.6713 202.117 29.8634Z" fill="white"/>
<path d="M250.876 19.6108C247.24 20.7433 243.902 23.3064 241.041 27.1212C240.266 28.1942 240.206 27.9557 240.146 23.9621V19.6108L234.067 19.7896L227.927 19.9684L227.748 44.5264L227.629 69.144H233.828H240.027L240.206 55.8517L240.444 42.619L242.531 38.4465C243.782 35.943 245.511 33.6184 246.882 32.4858C249.087 30.8169 249.505 30.6976 254.452 30.6976H259.698L260.055 27.1808C260.651 21.5182 260.532 19.8492 259.459 19.4319C258.207 18.9551 252.724 19.0743 250.876 19.6108Z" fill="white"/>
<path d="M291.11 19.6108C288.428 20.2664 284.672 22.8295 282.288 25.7503L280.083 28.3134V23.9621V19.6704H274.122H268.161V44.4072V69.144H274.122H280.083V59.1301C280.083 53.6463 280.381 47.2683 280.679 45.0033C281.394 39.8175 283.838 34.9893 286.818 32.5455C289.024 30.8169 289.441 30.6976 294.269 30.6976C297.13 30.6976 299.634 30.3996 299.872 30.1016C300.111 29.7439 300.349 27.3 300.349 24.6773C300.349 20.7433 300.17 19.73 299.395 19.4319C298.203 18.9551 293.375 19.0743 291.11 19.6108Z" fill="white"/>
<path d="M317.933 19.6109C314.893 20.3858 310.244 23.0681 308.277 25.1543C306.131 27.4194 304.045 31.2342 303.806 33.3205C303.627 34.751 303.925 34.8702 308.694 35.8239C311.495 36.42 313.82 36.6584 313.939 36.42C315.906 30.817 319.065 28.3135 324.192 28.3731C329.556 28.3731 333.729 31.6515 333.967 35.9432L334.027 37.8506L329.258 38.3274C310.124 40.2349 302.733 44.9438 302.733 55.1366C302.733 63.7199 309.35 69.6806 318.827 69.7402C322.523 69.7402 323.894 69.4422 326.993 68.0116C329.02 67.0579 331.225 65.4485 332 64.4352C332.715 63.4219 333.55 62.5874 333.848 62.5874C334.086 62.5874 334.325 64.0776 334.325 65.8658V69.1442H340.047H345.71L345.531 50.4872C345.352 32.6648 345.292 31.7707 344.041 29.446C342.133 25.9292 338.676 22.6508 334.921 20.9818C332.298 19.7301 330.57 19.4321 325.682 19.3129C322.403 19.1936 318.946 19.3129 317.933 19.6109ZM334.146 49.1759C333.729 51.8582 331.881 56.2095 330.45 57.5804C327.351 60.7396 321.271 61.8125 317.635 59.9051C314.297 58.1765 313.641 54.3617 316.204 51.3217C318.291 48.8182 322.821 47.5665 333.669 46.5532C334.325 46.4936 334.384 47.0896 334.146 49.1759Z" fill="white"/>
<path d="M376.05 19.6108C372.95 20.6241 370.745 22.1143 368.659 24.5581L366.513 27.0616V23.366V19.6704H360.254H353.995V44.4072V69.144H360.194H366.453L366.632 53.7655C366.811 39.6387 366.93 38.2677 368.062 35.7046C368.778 34.2144 370.328 32.1878 371.579 31.2341C374.5 29.0286 379.745 28.7902 382.428 30.7572C386.004 33.3799 386.183 34.3933 386.183 52.5733V69.144H392.442H398.641L398.82 53.5271C398.998 38.1485 399.058 37.7908 400.489 34.8701C404.125 27.5981 414.556 27.4193 417.417 34.5721C418.192 36.5987 418.371 39.6387 418.371 53.0502V69.144H424.689H431.007L430.769 50.4871C430.59 32.5454 430.53 31.7706 429.219 28.8498C427.61 25.2734 425.106 22.7103 421.351 20.7433C419.086 19.6108 417.834 19.3723 413.006 19.3723C406.032 19.4319 403.052 20.6241 399.118 25.035L396.376 28.0749L395.482 26.4059C394.409 24.2601 391.786 21.8758 389.223 20.5645C386.898 19.4319 378.494 18.7763 376.05 19.6108Z" fill="white"/>
<path d="M454.432 19.6116C448.531 21.1614 442.63 25.9896 439.829 31.5926C437.445 36.4208 436.61 40.5336 437.027 46.1367C437.445 52.3358 438.1 54.4816 440.961 58.8925C446.028 66.6414 453.24 70.0986 463.552 69.6218C470.705 69.2641 474.997 67.7143 479.169 63.9591C482.03 61.396 484.534 57.6408 484.534 55.9122C484.534 55.4353 482.925 54.6605 480.838 54.0644C475.176 52.5146 473.209 52.2166 473.209 52.9319C473.209 54.1836 469.453 57.8792 467.367 58.7137C463.493 60.3827 457.651 59.6674 454.015 57.1043C452.108 55.793 449.366 51.084 449.366 49.117V47.6865H467.546H485.726L486.084 46.0771C486.68 43.7524 485.309 36.0035 483.699 32.3675C481.613 27.8374 477.381 23.6053 472.672 21.3998C469.155 19.6712 468.082 19.4924 462.479 19.3136C459.022 19.1944 455.446 19.3136 454.432 19.6116ZM467.069 29.566C469.573 30.6985 471.957 33.8577 472.434 36.5996L472.791 38.7454H461.049C453.419 38.7454 449.366 38.507 449.366 38.1494C449.366 37.7917 450.022 36.1823 450.856 34.6326C452.287 31.7118 454.85 29.6256 458.188 28.6123C460.214 27.9566 464.566 28.4334 467.069 29.566Z" fill="white"/>
<path d="M515.828 19.6108C513.384 20.2068 511 21.7566 507.96 24.6773L505.396 27.0616V23.366V19.6704H499.436H493.475V44.4072V69.144H499.376H505.277L505.516 54.9576C505.694 41.0096 505.694 40.7712 507.304 37.3736C509.092 33.6184 510.582 32.009 513.563 30.638C517.139 29.0286 522.206 29.9824 524.709 32.7243C527.093 35.347 527.391 37.7908 527.451 53.7655V69.144H533.471H539.432L539.253 50.1891C539.074 29.0883 538.955 28.671 534.723 24.2601C531.266 20.6241 528.524 19.5512 522.682 19.3127C519.881 19.1935 516.781 19.3127 515.828 19.6108Z" fill="white"/>
<path d="M44.3467 0.586254C43.2966 1.80904 0 67.4729 0 67.8397C0 68.0435 0.363498 68.6142 0.807773 69.1033C1.65593 70 1.7771 70 14.9034 70H28.1913L28.6759 67.8805C30.4127 60.503 35.7843 53.8184 42.6908 50.4354C48.1029 47.7452 53.5553 47.0115 59.4521 48.1528C69.0646 50.0278 77.1019 57.6498 79.808 67.4321L80.4946 70H93.9036C105.172 70 107.434 69.9185 107.838 69.3886C108.08 69.0625 108.242 68.5734 108.161 68.2881C107.959 67.4321 78.354 22.7188 78.0309 22.7188C77.8289 22.7188 75.8499 25.4497 73.5881 28.8327C71.286 32.175 69.2665 34.9467 69.105 34.9467C68.903 34.9467 67.8125 33.4386 66.6009 31.5636C64.5814 28.4251 57.6346 17.9091 49.4761 5.64046C47.497 2.62424 45.6392 0.0971379 45.3968 0.0156185C45.1545 -0.0659009 44.6698 0.178657 44.3467 0.586254Z" fill="white"/>
</svg>
