<svg version="1.2" xmlns="http://www.w3.org/2000/svg" viewBox="0 0 925 925" width="925" height="925">
	<style>
		.s0 { fill: #1f3634 } 
	</style>
	<g id="Page-1">
		<path id="Path-Copy" class="s0" d="m380.12 174.9c-7.69 8.93-285.41 428.61-355.9 537.23-10.27 15.82-7.24 10.71-12.34 19.87-4.27 8.15-0.4 15.08 3.06 18.54 7.12 7.5 7.13 5.09 118.17 5.09h111.48l4.06-17.73c14.57-61.72 59.64-117.65 117.58-145.95 45.41-22.51 91.15-28.64 140.62-19.1 80.64 15.69 148.07 79.46 170.78 161.3l5.76 21.48h112.49c94.53 0 112.05 0 116.73-3.67 2.65-2.24 4.48-6.51 2.65-10.99-4.51-8.09-5.3-9.58-13.1-22.26-51.85-82.36-237.1-358.64-239.44-358.64-1.7 0-18.3 22.85-37.28 51.15-19.31 27.96-36.25 51.15-37.61 51.15-1.69 0-10.84-12.62-21.01-28.3-16.94-26.26-75.22-114.24-143.66-216.88-16.61-25.24-32.19-46.38-34.23-47.06-2.03-0.68-6.1 1.36-8.81 4.77z"/>
	</g>
</svg>